<svg width="40" height="41" viewBox="0 0 40 41" fill="none" xmlns="http://www.w3.org/2000/svg">
<path fill-rule="evenodd" clip-rule="evenodd" d="M13 18.0015C11.8954 18.0015 11 18.8969 11 20.0015C11 21.1061 11.8954 22.0015 13 22.0015C14.1046 22.0015 15 21.1061 15 20.0015C15 18.8969 14.1046 18.0015 13 18.0015ZM18 20.0015C18 18.8969 18.8954 18.0015 20 18.0015C21.1046 18.0015 22 18.8969 22 20.0015C22 21.1061 21.1046 22.0015 20 22.0015C18.8954 22.0015 18 21.1061 18 20.0015ZM25 20.0015C25 18.8969 25.8954 18.0015 27 18.0015C28.1046 18.0015 29 18.8969 29 20.0015C29 21.1061 28.1046 22.0015 27 22.0015C25.8954 22.0015 25 21.1061 25 20.0015Z" fill="white"/>
</svg>
