<svg width="12" height="10" viewBox="0 0 12 10" fill="none" xmlns="http://www.w3.org/2000/svg">
<path fill-rule="evenodd" clip-rule="evenodd" d="M1.83337 2.00196C1.8334 1.72813 2.05953 1.50201 2.33337 1.50201H10.3334C10.6072 1.50201 10.8333 1.72813 10.8334 2.00196C10.7379 2.00187 10.6414 2.02907 10.556 2.08599L6.33337 4.90109L2.11072 2.08599C2.02534 2.02907 1.92882 2.00187 1.83337 2.00196ZM1.83337 3.10294V8.00201C1.83337 8.27587 2.05952 8.50201 2.33337 8.50201H10.3334C10.6072 8.50201 10.8334 8.27587 10.8334 8.00201V3.10294L6.61072 5.91804C6.44277 6.03001 6.22397 6.03001 6.05602 5.91804L1.83337 3.10294ZM2.33337 0.502014C1.50723 0.502014 0.833374 1.17587 0.833374 2.00201V8.00201C0.833374 8.82816 1.50723 9.50201 2.33337 9.50201H10.3334C11.1595 9.50201 11.8334 8.82816 11.8334 8.00201V2.00201C11.8334 1.17587 11.1595 0.502014 10.3334 0.502014H2.33337Z" fill="#7F8FA4"/>
</svg>
