<svg width="40" height="41" viewBox="0 0 40 41" fill="none" xmlns="http://www.w3.org/2000/svg">
<path fill-rule="evenodd" clip-rule="evenodd" d="M20 10.001C14.4772 10.001 10 14.4782 10 20.001C10 25.5239 14.4772 30.001 20 30.001C25.5228 30.001 30 25.5239 30 20.001C30 14.4782 25.5228 10.001 20 10.001ZM8 20.001C8 13.3736 13.3726 8.00102 20 8.00102C26.6274 8.00102 32 13.3736 32 20.001C32 26.6284 26.6274 32.001 20 32.001C13.3726 32.001 8 26.6284 8 20.001ZM20.4072 15.0446C18.8545 14.7734 17.4443 15.6218 16.9402 17.0133C16.7521 17.5325 16.1786 17.801 15.6594 17.6128C15.1401 17.4247 14.8717 16.8513 15.0598 16.332C15.8962 14.0233 18.2476 12.6371 20.7514 13.0745C21.9024 13.2755 22.9799 13.7413 23.7729 14.5882C24.5789 15.449 25 16.6064 25 18.005C25 19.8822 23.5668 21.1421 22.4851 21.8422C21.9101 22.2144 21.3425 22.4892 20.9228 22.6703C20.7115 22.7615 20.5341 22.8305 20.4072 22.8774C20.3436 22.9009 20.2925 22.919 20.2559 22.9316L20.212 22.9466L20.1987 22.951L20.1942 22.9525L20.1926 22.953L20.1919 22.9532C20.1916 22.9533 20.1913 22.9534 19.8962 22.0416L20.1913 22.9534C19.6658 23.1235 19.102 22.8354 18.9319 22.3099C18.762 21.7849 19.0495 21.2216 19.5741 21.051L19.5749 21.0507L19.5783 21.0496L19.6033 21.0411C19.627 21.0329 19.6643 21.0198 19.7133 21.0016C19.8116 20.9653 19.9557 20.9094 20.1304 20.834C20.4825 20.6821 20.9441 20.4573 21.3983 20.1633C22.3749 19.5311 23 18.7925 23 18.005C23 17.0246 22.7152 16.3848 22.313 15.9552C21.8979 15.512 21.2651 15.1945 20.4072 15.0446ZM20 25.002C19.4477 25.002 19 25.4497 19 26.002C19 26.5543 19.4477 27.002 20 27.002H20.01C20.5623 27.002 21.01 26.5543 21.01 26.002C21.01 25.4497 20.5623 25.002 20.01 25.002H20Z" fill="#516173"/>
</svg>
