<svg width="40" height="40" viewBox="0 0 40 40" fill="none" xmlns="http://www.w3.org/2000/svg">
<rect width="40" height="40" rx="20" fill="#FF3031"/>
<g filter="url(#filter0_d_3_10400)">
<path fill-rule="evenodd" clip-rule="evenodd" d="M20 12C20 11 19.9999 11 19.9998 11L19.9995 11L19.9984 11L19.9944 11L19.9791 11L19.9201 11.0001C19.8685 11.0002 19.7929 11.0005 19.6963 11.0009C19.5031 11.0018 19.2256 11.0036 18.8874 11.0072C18.2114 11.0145 17.291 11.0289 16.3153 11.0579C15.3411 11.0869 14.3039 11.1305 13.3966 11.1967C12.5173 11.2608 11.6752 11.3512 11.1416 11.494L11.1277 11.4978C10.5016 11.6749 9.96799 11.9625 9.44352 12.5031C8.91904 13.0438 8.64789 13.5859 8.48989 14.2172C8.48448 14.2388 8.47979 14.2606 8.47584 14.2825C8.15053 16.0864 7.99123 17.9164 7.99995 19.7493C7.9887 21.5961 8.148 23.44 8.47584 25.2575C8.4817 25.29 8.48916 25.3222 8.4982 25.3539C8.67237 25.9655 8.95107 26.487 9.47467 27.0052C9.99827 27.5234 10.5227 27.7967 11.136 27.9645L11.136 27.9646L11.1416 27.966C11.6752 28.1088 12.5173 28.1992 13.3966 28.2633C14.3039 28.3295 15.3411 28.3731 16.3153 28.4021C17.291 28.4311 18.2114 28.4455 18.8874 28.4528C19.2256 28.4564 19.5031 28.4582 19.6963 28.4591C19.7929 28.4595 19.8685 28.4598 19.9201 28.4599L19.9791 28.46L19.9944 28.46L19.9984 28.46H19.9995H19.9998C19.9999 28.46 20 28.46 20 27.46C20 28.46 20 28.46 20.0001 28.46H20.0004H20.0015L20.0055 28.46L20.0208 28.46L20.0799 28.4599C20.1314 28.4598 20.207 28.4595 20.3036 28.4591C20.4969 28.4582 20.7743 28.4564 21.1125 28.4528C21.7885 28.4455 22.7089 28.4311 23.6847 28.4021C24.6588 28.3731 25.6961 28.3295 26.6033 28.2633C27.4826 28.1992 28.3247 28.1088 28.8583 27.966L28.8722 27.9622C29.4984 27.7851 30.0319 27.4975 30.5564 26.9569C31.0809 26.4162 31.352 25.8741 31.51 25.2428C31.5154 25.2212 31.5201 25.1994 31.5241 25.1774C31.8469 23.3869 32.0062 21.5707 32 19.7513C32.0113 17.9043 31.852 16.0602 31.5241 14.2425C31.5201 14.2206 31.5154 14.1988 31.51 14.1772C31.352 13.5459 31.0809 13.0038 30.5564 12.4631C30.0319 11.9225 29.4984 11.6349 28.8722 11.4578C28.8606 11.4545 28.8489 11.4514 28.8372 11.4485C28.3115 11.3202 27.4767 11.238 26.597 11.1794C25.6915 11.1191 24.6556 11.0793 23.6821 11.0529C22.7071 11.0264 21.7872 11.0132 21.1116 11.0066C20.7736 11.0033 20.4963 11.0017 20.3032 11.0008C20.2067 11.0004 20.1312 11.0002 20.0797 11.0001L20.0207 11L20.0054 11L20.0015 11L20.0004 11L20.0001 11C20 11 20 11 20 12ZM20 12L20 13H20.0002H20.001L20.0045 13L20.0188 13L20.0756 13.0001L20.2947 13.0008C20.4846 13.0016 20.7582 13.0033 21.0921 13.0065C21.7602 13.013 22.6679 13.0261 23.6278 13.0521C24.5893 13.0782 25.5959 13.1172 26.4641 13.175C27.3432 13.2335 28.0058 13.3073 28.3456 13.3873C28.6514 13.4759 28.8657 13.5927 29.1208 13.8557C29.3725 14.1151 29.4831 14.3306 29.5621 14.6325C29.8642 16.3192 30.0107 18.0301 30 19.7437H29.9999L30 19.7536C30.006 21.4414 29.8595 23.1262 29.5621 24.7875C29.4831 25.0894 29.3725 25.3049 29.1208 25.5643C28.8628 25.8304 28.6464 25.9468 28.3349 26.0357C28.0062 26.1223 27.3462 26.2038 26.4578 26.2686C25.5914 26.3318 24.5861 26.3744 23.6253 26.4029C22.666 26.4314 21.7589 26.4457 21.0911 26.4529C20.7575 26.4564 20.484 26.4582 20.2943 26.4591C20.1994 26.4596 20.1255 26.4598 20.0754 26.4599L20.0187 26.46L20.0044 26.46L20.001 26.46H20.0001H19.9999H19.9998H19.999L19.9955 26.46L19.9812 26.46L19.9245 26.4599C19.8745 26.4598 19.8005 26.4596 19.7057 26.4591C19.5159 26.4582 19.2425 26.4564 18.9088 26.4529C18.241 26.4457 17.3339 26.4314 16.3747 26.4029C15.4138 26.3744 14.4086 26.3318 13.5421 26.2686C12.6501 26.2035 11.9883 26.1217 11.661 26.0347C11.3535 25.9502 11.1404 25.8399 10.8815 25.5837C10.6346 25.3393 10.5208 25.1351 10.4348 24.8506C10.1348 23.1693 9.98922 21.4641 9.99994 19.7563H10L9.99995 19.7451C9.99155 18.0444 10.1381 16.3465 10.4378 14.6725C10.5168 14.3706 10.6274 14.1551 10.8791 13.8957C11.1371 13.6296 11.3535 13.5132 11.665 13.4243C11.9937 13.3377 12.6537 13.2562 13.5421 13.1914C14.4086 13.1282 15.4138 13.0856 16.3747 13.0571C17.3339 13.0286 18.241 13.0143 18.9088 13.0071C19.2425 13.0036 19.5159 13.0018 19.7057 13.0009C19.8005 13.0004 19.8745 13.0002 19.9245 13.0001L19.9812 13L19.9955 13L19.999 13L19.9998 13H19.9999L20 12ZM18.2443 15.6107C17.9348 15.4347 17.555 15.4366 17.2471 15.6156C16.9393 15.7947 16.75 16.1239 16.75 16.48V23.02C16.75 23.3761 16.9393 23.7053 17.2471 23.8844C17.555 24.0634 17.9348 24.0653 18.2443 23.8893L23.9943 20.6193C24.3069 20.4415 24.5 20.1096 24.5 19.75C24.5 19.3904 24.3069 19.0585 23.9943 18.8807L18.2443 15.6107ZM21.4771 19.75L18.75 21.3009V18.1991L21.4771 19.75Z" fill="white"/>
</g>
<defs>
<filter id="filter0_d_3_10400" x="7.99939" y="8" width="24.0011" height="25" filterUnits="userSpaceOnUse" color-interpolation-filters="sRGB">
<feFlood flood-opacity="0" result="BackgroundImageFix"/>
<feColorMatrix in="SourceAlpha" type="matrix" values="0 0 0 0 0 0 0 0 0 0 0 0 0 0 0 0 0 0 127 0" result="hardAlpha"/>
<feOffset dy="1"/>
<feColorMatrix type="matrix" values="0 0 0 0 0.109804 0 0 0 0 0.109804 0 0 0 0 0.109804 0 0 0 0.1 0"/>
<feBlend mode="normal" in2="BackgroundImageFix" result="effect1_dropShadow_3_10400"/>
<feBlend mode="normal" in="SourceGraphic" in2="effect1_dropShadow_3_10400" result="shape"/>
</filter>
</defs>
</svg>
