<svg width="56" height="56" viewBox="0 0 56 56" fill="none" xmlns="http://www.w3.org/2000/svg">
<path fill-rule="evenodd" clip-rule="evenodd" d="M19.0168 16.3501C19.4544 15.9125 20.0479 15.6667 20.6667 15.6667H37.6667V33.7236C37.5624 33.6867 37.4503 33.6667 37.3334 33.6667H20.6667C19.8334 33.6667 19.0248 33.9067 18.3334 34.3485V18C18.3334 17.3812 18.5792 16.7877 19.0168 16.3501ZM18.3334 38C18.3334 38.6188 18.5792 39.2123 19.0168 39.6499C19.4544 40.0875 20.0479 40.3333 20.6667 40.3333H36.391C36.3532 40.2269 36.3334 40.1138 36.3334 39.9987V35.9987C36.3334 35.8845 36.3529 35.7724 36.3901 35.6667H20.6667C20.0479 35.6667 19.4544 35.9125 19.0168 36.3501C18.5792 36.7877 18.3334 37.3812 18.3334 38ZM16.3334 38C16.3334 39.1493 16.7899 40.2515 17.6026 41.0641C18.4152 41.8768 19.5174 42.3333 20.6667 42.3333H38.6667C39.0711 42.3333 39.4357 42.0898 39.5905 41.7162C39.7453 41.3427 39.66 40.9126 39.3742 40.6266L38.3334 39.5848V36.4129L39.3738 35.3725C39.5613 35.1849 39.6667 34.9306 39.6667 34.6654V14.6667C39.6667 14.1144 39.219 13.6667 38.6667 13.6667H20.6667C19.5174 13.6667 18.4152 14.1232 17.6026 14.9359C16.7899 15.7485 16.3334 16.8507 16.3334 18V38Z" fill="white"/>
<rect x="12" y="55" width="32" height="1" fill="#516173"/>
</svg>
