<svg width="40" height="41" viewBox="0 0 40 41" fill="none" xmlns="http://www.w3.org/2000/svg">
<path fill-rule="evenodd" clip-rule="evenodd" d="M13 18.002C11.8954 18.002 11 18.8974 11 20.002C11 21.1066 11.8954 22.002 13 22.002C14.1046 22.002 15 21.1066 15 20.002C15 18.8974 14.1046 18.002 13 18.002ZM18 20.002C18 18.8974 18.8954 18.002 20 18.002C21.1046 18.002 22 18.8974 22 20.002C22 21.1066 21.1046 22.002 20 22.002C18.8954 22.002 18 21.1066 18 20.002ZM25 20.002C25 18.8974 25.8954 18.002 27 18.002C28.1046 18.002 29 18.8974 29 20.002C29 21.1066 28.1046 22.002 27 22.002C25.8954 22.002 25 21.1066 25 20.002Z" fill="#516173"/>
</svg>
