<svg width="56" height="56" viewBox="0 0 56 56" fill="none" xmlns="http://www.w3.org/2000/svg">
<path fill-rule="evenodd" clip-rule="evenodd" d="M33.2428 16.4195C31.9668 15.8986 30.5371 15.662 28.7433 15.6667C24.3184 15.6783 20.9793 17.7741 18.8812 21.1668C17.749 22.9975 17.149 25.1072 17.1481 27.2596L17.1481 27.2619C17.1434 29.0597 17.5635 30.8332 18.3741 32.438C18.4943 32.676 18.5145 32.9521 18.4301 33.2051L16.2478 39.7521L22.7948 37.5698C23.0478 37.4855 23.3239 37.5057 23.5619 37.6259C25.1765 38.4414 26.6479 38.8513 28.7409 38.8518C30.025 38.8521 31.0099 38.74 31.9268 38.479C32.8437 38.218 33.7405 37.7945 34.8331 37.1188C35.9254 36.4433 36.7043 35.8299 37.3472 35.1259C37.9902 34.4218 38.5307 33.5904 39.1056 32.4414C40.047 30.5601 40.3288 29.3629 40.3332 27.2572C40.337 25.463 40.1003 24.0331 39.5796 22.757C39.0593 21.4818 38.2305 20.2992 36.9656 19.0343C35.7006 17.7693 34.518 16.94 33.2428 16.4195ZM33.9987 14.5678C35.5807 15.2136 36.9792 16.2195 38.3798 17.6201C39.7806 19.0209 40.7859 20.4194 41.4314 22.0014C42.0766 23.5825 42.3374 25.2858 42.3332 27.2613C42.3282 29.6743 41.9749 31.1766 40.8942 33.3363C40.2667 34.5905 39.6295 35.5926 38.8241 36.4746C38.0185 37.3566 37.0782 38.0819 35.8851 38.8198C34.6923 39.5574 33.6234 40.0755 32.4743 40.4026C31.3251 40.7297 30.1436 40.8522 28.7404 40.8518C26.4785 40.8512 24.7793 40.4229 23.0388 39.5966L14.9829 42.282C14.6235 42.4017 14.2274 42.3082 13.9595 42.0404C13.6917 41.7726 13.5982 41.3764 13.718 41.0171L16.404 32.9589C15.5727 31.1754 15.1432 29.229 15.1481 27.2578C15.1493 24.7343 15.8529 22.261 17.1802 20.1149C19.6215 16.1671 23.5845 13.6802 28.7381 13.6667C30.714 13.6615 32.4175 13.9224 33.9987 14.5678Z" fill="white"/>
<circle cx="38" cy="18" r="6" fill="#FF3031" stroke="#354052" stroke-width="2"/>
<rect x="12" y="55" width="32" height="1" fill="#516173"/>
</svg>
