<svg width="13" height="13" viewBox="0 0 13 13" fill="none" xmlns="http://www.w3.org/2000/svg">
<path fill-rule="evenodd" clip-rule="evenodd" d="M2.76848 1.00222C2.2018 1.00842 1.75968 1.16784 1.57026 1.37289C1.40719 1.54943 1.31744 1.8266 1.33563 2.24072C1.35379 2.65425 1.47839 3.14295 1.67083 3.65765C2.05474 4.68446 2.66574 5.70361 3.0064 6.22329L3.00882 6.22698L3.0088 6.22699C3.80125 7.4594 4.85888 8.50475 6.10692 9.28848L6.11081 9.29093L6.1108 9.29095C6.70831 9.67387 7.69981 10.3017 8.70127 10.6842C9.20191 10.8754 9.67527 10.9933 10.0833 11.0016C10.4848 11.0097 10.7896 10.9124 11.0143 10.7087C11.0665 10.6613 11.1474 10.5393 11.2164 10.3113C11.2821 10.0943 11.3229 9.82715 11.3316 9.54698C11.3403 9.26717 11.3164 8.99133 11.2632 8.7579C11.2082 8.51604 11.1314 8.36135 11.0652 8.28412C11.0181 8.22922 10.9034 8.14096 10.7005 8.04227C10.5071 7.94819 10.2692 7.86168 10.0154 7.79264C9.48563 7.64852 8.98909 7.60734 8.74104 7.65962C8.6159 7.68599 8.47863 7.76844 8.30581 7.92957C8.22133 8.00833 8.13813 8.09636 8.0475 8.1942C8.03513 8.20755 8.02251 8.22121 8.00968 8.2351C7.93291 8.31822 7.84859 8.40949 7.76465 8.49245C7.606 8.64923 7.3627 8.68197 7.16825 8.5727C5.73305 7.76623 4.54396 6.59144 3.72704 5.17167C3.61376 4.9748 3.64741 4.72632 3.80896 4.56667C3.89291 4.48371 3.9853 4.40039 4.06942 4.32453C4.08342 4.31191 4.09718 4.2995 4.11064 4.28733C4.20964 4.1978 4.29871 4.11561 4.3784 4.03217C4.54194 3.86091 4.6237 3.72661 4.64962 3.60651C4.70142 3.36649 4.66066 2.88081 4.51564 2.35873C4.44631 2.10916 4.35952 1.87501 4.2653 1.68458C4.16656 1.48501 4.07827 1.37155 4.02298 1.32457C3.81015 1.14368 3.33081 0.996071 2.76848 1.00222ZM2.75754 0.00228247C3.43061 -0.00508028 4.19456 0.158025 4.67058 0.562582C4.87738 0.73834 5.0385 0.992326 5.1616 1.24113C5.28922 1.49906 5.39669 1.79421 5.47915 2.09108C5.63771 2.66188 5.73066 3.33765 5.62712 3.81746C5.54339 4.2054 5.31181 4.50269 5.1016 4.72281C5.00108 4.82806 4.89553 4.92558 4.80018 5.012C5.44535 6.01543 6.30731 6.86623 7.32466 7.50301C7.41378 7.40693 7.51474 7.29992 7.62387 7.19816C7.84712 6.99001 8.14641 6.76297 8.53481 6.68111C9.0171 6.57947 9.6992 6.67028 10.2779 6.82771C10.5783 6.90945 10.8771 7.01611 11.138 7.14304C11.3894 7.26536 11.6466 7.42596 11.8243 7.63322C12.0392 7.8838 12.1654 8.21565 12.2383 8.53605C12.3131 8.86489 12.342 9.22704 12.3311 9.57795C12.3203 9.92851 12.2692 10.2848 12.1736 10.601C12.0812 10.9062 11.9313 11.2271 11.686 11.4495C11.2194 11.8726 10.6384 12.013 10.0631 12.0014C9.4943 11.9899 8.89969 11.8305 8.34448 11.6184C7.23547 11.1948 6.16489 10.5133 5.57318 10.1341C4.20293 9.27327 3.04059 8.12477 2.16888 6.76969C1.81079 6.22325 1.15524 5.13409 0.734154 4.00786C0.523858 3.4454 0.361236 2.84573 0.336593 2.28459C0.311976 1.72404 0.423837 1.14023 0.83569 0.694362C1.30349 0.18793 2.08884 0.00959748 2.75754 0.00228247Z" fill="#7F8FA4"/>
</svg>
