<svg width="16" height="17" viewBox="0 0 16 17" fill="none" xmlns="http://www.w3.org/2000/svg">
<path fill-rule="evenodd" clip-rule="evenodd" d="M9 1.0015C9 0.449214 8.55229 0.00149918 8 0.00149918C7.44772 0.00149918 7 0.449214 7 1.0015V7.0015H1C0.447715 7.0015 0 7.44921 0 8.0015C0 8.55378 0.447715 9.0015 1 9.0015H7V15.0015C7 15.5538 7.44772 16.0015 8 16.0015C8.55229 16.0015 9 15.5538 9 15.0015V9.0015H15C15.5523 9.0015 16 8.55378 16 8.0015C16 7.44921 15.5523 7.0015 15 7.0015H9V1.0015Z" fill="white"/>
</svg>
