<svg width="56" height="56" viewBox="0 0 56 56" fill="none" xmlns="http://www.w3.org/2000/svg">
<path d="M18 24C19.1 24 20 24.9 20 26C20 27.1 19.1 28 18 28C16.9 28 16 27.1 16 26C16 24.9 16.9 24 18 24ZM18 22C15.8 22 14 23.8 14 26C14 28.2 15.8 30 18 30C20.2 30 22 28.2 22 26C22 23.8 20.2 22 18 22Z" fill="white"/>
<path d="M28 30C29.1 30 30 30.9 30 32C30 33.1 29.1 34 28 34C26.9 34 26 33.1 26 32C26 30.9 26.9 30 28 30ZM28 28C25.8 28 24 29.8 24 32C24 34.2 25.8 36 28 36C30.2 36 32 34.2 32 32C32 29.8 30.2 28 28 28Z" fill="white"/>
<path d="M38 22C39.1 22 40 22.9 40 24C40 25.1 39.1 26 38 26C36.9 26 36 25.1 36 24C36 22.9 36.9 22 38 22ZM38 20C35.8 20 34 21.8 34 24C34 26.2 35.8 28 38 28C40.2 28 42 26.2 42 24C42 21.8 40.2 20 38 20Z" fill="white"/>
<path d="M17 42V34C17 33.4 17.4 33 18 33C18.6 33 19 33.4 19 34V42C19 42.6 18.6 43 18 43C17.4 43 17 42.6 17 42Z" fill="white"/>
<path d="M27 25V15C27 14.4 27.4 14 28 14C28.6 14 29 14.4 29 15V25C29 25.6 28.6 26 28 26C27.4 26 27 25.6 27 25Z" fill="white"/>
<path d="M37 41V31C37 30.4 37.4 30 38 30C38.6 30 39 30.4 39 31V41C39 41.6 38.6 42 38 42C37.4 42 37 41.6 37 41Z" fill="white"/>
<path d="M37 17V15C37 14.4 37.4 14 38 14C38.6 14 39 14.4 39 15V17C39 17.6 38.6 18 38 18C37.4 18 37 17.6 37 17Z" fill="white"/>
<path d="M17 19V15C17 14.4 17.4 14 18 14C18.6 14 19 14.4 19 15V19C19 19.6 18.6 20 18 20C17.4 20 17 19.6 17 19Z" fill="white"/>
<path d="M27 41V39C27 38.4 27.4 38 28 38C28.6 38 29 38.4 29 39V41C29 41.6 28.6 42 28 42C27.4 42 27 41.6 27 41Z" fill="white"/>
</svg>
