<svg width="40" height="40" viewBox="0 0 40 40" fill="none" xmlns="http://www.w3.org/2000/svg">
<rect width="40" height="40" rx="20" fill="#0085F0"/>
<g filter="url(#filter0_d_593_9261)">
<path fill-rule="evenodd" clip-rule="evenodd" d="M16.084 14.553C16.084 13.7473 16.7491 13.049 17.642 13.049H21.088C21.4958 13.049 22.019 13.1654 22.3767 13.6444C22.6778 14.0477 22.714 14.5296 22.714 14.855V18.0235C23.2672 17.3142 23.7556 16.4918 24.1321 15.7802C24.3596 15.3503 24.5398 14.973 24.6627 14.7043C24.7241 14.5702 24.7709 14.4637 24.8019 14.392C24.8173 14.3561 24.8289 14.3289 24.8362 14.3114L24.8442 14.2924L24.8458 14.2885L24.8458 14.2885L24.8459 14.2883L24.8459 14.2882L24.846 14.2881L24.8493 14.2799L24.853 14.2713C24.9648 14.0127 25.1533 13.6922 25.4874 13.4395C25.8345 13.1769 26.257 13.049 26.724 13.049H28.917C29.3744 13.049 29.9899 13.1634 30.3683 13.7045C30.7197 14.2072 30.6436 14.7663 30.5475 15.1057C30.4376 15.574 30.1593 16.1449 29.8793 16.6598C29.5738 17.2214 29.1998 17.8335 28.8425 18.3929C28.4838 18.9544 28.1349 19.4737 27.8762 19.8519C27.7467 20.0413 27.6393 20.1959 27.5641 20.3036C27.5457 20.3299 27.5293 20.3533 27.5149 20.3738C27.5411 20.4026 27.5724 20.4358 27.6094 20.4739C27.7095 20.5773 27.8306 20.6959 27.9734 20.8358L27.9792 20.8415L27.9844 20.8466C28.2587 21.1153 28.6059 21.4556 28.8938 21.7939C29.3684 22.3277 29.8022 22.8398 30.1472 23.3068C30.4806 23.7581 30.7898 24.2439 30.9403 24.7139L30.9444 24.7265L30.9481 24.7393C31.0887 25.222 31.1096 25.8569 30.6683 26.369C30.2579 26.8452 29.6677 26.95 29.229 26.95H27.037C26.6798 26.95 26.3467 26.875 26.0286 26.7083C25.7322 26.5531 25.4925 26.3403 25.2896 26.1369C25.1271 25.974 24.949 25.7758 24.7637 25.5697C24.7222 25.5235 24.6804 25.477 24.6383 25.4303C24.3999 25.1663 24.1207 24.8622 23.7696 24.5107C23.2907 24.05 22.9485 23.7758 22.713 23.613V25.0979C22.713 25.4544 22.66 26.1211 22.0102 26.5572C21.5176 26.8879 20.8447 26.951 20.148 26.951C17.4275 26.951 14.5981 25.3188 12.6438 22.5163C11.2427 20.5521 10.3415 18.8151 9.78735 17.477C9.51028 16.808 9.31817 16.2343 9.19376 15.7779C9.07716 15.3501 9 14.9542 9 14.669C9 14.4041 9.04661 13.934 9.41931 13.5456C9.79542 13.1536 10.304 13.05 10.752 13.05H12.944C13.3767 13.05 13.8482 13.149 14.2431 13.5128C14.5874 13.8299 14.7573 14.2504 14.8695 14.5764L14.8698 14.5771C15.3818 16.068 16.0688 17.4605 16.7047 18.4651C16.7905 18.6007 16.8742 18.7272 16.955 18.8444V16.72C16.923 16.2064 16.7852 15.9927 16.6833 15.8542C16.6479 15.806 16.6122 15.7617 16.5625 15.7002L16.5602 15.6974L16.557 15.6934C16.5127 15.6385 16.4469 15.557 16.3862 15.4693C16.2508 15.2735 16.084 14.9678 16.084 14.553ZM16.9376 20.2239C16.9376 20.2238 16.9379 20.2224 16.9386 20.2197C16.938 20.2226 16.9376 20.2239 16.9376 20.2239ZM17.7793 19.8005C17.7859 19.8037 17.7892 19.8058 17.7893 19.8061C17.7893 19.8063 17.7861 19.8047 17.7793 19.8005ZM25.8138 19.3158L25.814 19.3155L25.8152 19.3138L25.8204 19.3064L25.8417 19.2762C25.8606 19.2494 25.8887 19.2095 25.9246 19.1581C25.9966 19.0551 26.1001 18.9059 26.2255 18.7227C26.4764 18.3558 26.813 17.8549 27.157 17.3162C27.5024 16.7755 27.8486 16.2075 28.1223 15.7042C28.264 15.4437 28.3728 15.2244 28.4513 15.049H26.724C26.7131 15.049 26.7037 15.0493 26.6957 15.0497C26.6943 15.0527 26.6928 15.0558 26.6913 15.0592L26.68 15.0864C26.6702 15.1096 26.6562 15.1426 26.6381 15.1845C26.602 15.2683 26.5493 15.388 26.4814 15.5364C26.3459 15.8326 26.1487 16.2453 25.8999 16.7155C25.4087 17.644 24.6903 18.847 23.8207 19.8173L23.8034 19.8366L23.7852 19.855C23.3302 20.3126 22.8128 20.825 22.055 20.825C21.0526 20.825 20.714 19.8414 20.714 19.198V15.049H18.5371C18.747 15.4342 18.9154 15.9363 18.9535 16.6366L18.955 16.6638V16.691V19.919C18.955 20.2628 18.937 20.7149 18.7315 21.0863C18.6029 21.3185 18.4057 21.5158 18.141 21.6352C17.9044 21.742 17.6817 21.755 17.548 21.755C17.1697 21.755 16.8627 21.5916 16.6732 21.4669C16.4652 21.33 16.2711 21.1539 16.0958 20.9701C15.743 20.6005 15.374 20.1023 15.0148 19.5348C14.2927 18.394 13.5392 16.8601 12.9783 15.2271C12.9518 15.15 12.9294 15.0926 12.9109 15.05H11.0715C11.0862 15.1113 11.1034 15.1787 11.1234 15.252C11.2232 15.6182 11.3867 16.1118 11.6352 16.7117C12.1316 17.9103 12.9599 19.5161 14.275 21.3591L14.2816 21.3683L14.2815 21.3683C15.9511 23.7649 18.222 24.951 20.148 24.951C20.3996 24.951 20.5823 24.9394 20.713 24.9229V23.132C20.713 22.9492 20.7219 22.751 20.759 22.56C20.7962 22.3679 20.8735 22.1204 21.0557 21.894C21.4595 21.3926 22.0471 21.38 22.287 21.38C23.0353 21.38 23.8458 21.8074 25.1637 23.0767L25.1705 23.0832L25.1771 23.0898C25.5658 23.4785 25.8726 23.8129 26.1229 24.0902C26.1745 24.1474 26.2226 24.2008 26.2677 24.251C26.4497 24.4534 26.5832 24.6018 26.7056 24.7245C26.8544 24.8736 26.9256 24.9204 26.9566 24.9367C26.9573 24.937 26.958 24.9374 26.9587 24.9378C26.9677 24.9427 26.981 24.95 27.037 24.95H28.8483C28.7714 24.824 28.6699 24.6729 28.5385 24.4951C28.2457 24.0987 27.8562 23.6367 27.3918 23.1146L27.3839 23.1057L27.3762 23.0966C27.1555 22.8362 26.8707 22.5554 26.5795 22.2701C26.5618 22.2527 26.5435 22.2349 26.5249 22.2167C26.2907 21.9876 25.9988 21.7022 25.8287 21.4707C25.6103 21.1862 25.3828 20.7903 25.4238 20.2846C25.4564 19.8814 25.6653 19.5492 25.7617 19.3959C25.7681 19.3856 25.7741 19.3761 25.7795 19.3674L25.7958 19.3411L25.8138 19.3158L25.8138 19.3158ZM11.0004 14.6564C11.0005 14.6565 11.0005 14.6586 11.0001 14.6624C11.0002 14.6583 11.0004 14.6563 11.0004 14.6564ZM10.6706 15.0544C10.6677 15.0551 10.6662 15.0553 10.6662 15.0553C10.6661 15.0552 10.6675 15.0549 10.6706 15.0544ZM21.1002 15.0493C21.1002 15.0493 21.0995 15.0493 21.0982 15.0492ZM22.7168 19.2468C22.7168 19.2468 22.7166 19.2459 22.7163 19.2439ZM20.7048 14.7079C20.7048 14.7079 20.7048 14.7081 20.7049 14.7084C20.7049 14.7084 20.7049 14.7083 20.7049 14.7083C20.7048 14.7081 20.7048 14.7079 20.7048 14.7079Z" fill="white"/>
</g>
<defs>
<filter id="filter0_d_593_9261" x="8" y="8" width="24" height="25" filterUnits="userSpaceOnUse" color-interpolation-filters="sRGB">
<feFlood flood-opacity="0" result="BackgroundImageFix"/>
<feColorMatrix in="SourceAlpha" type="matrix" values="0 0 0 0 0 0 0 0 0 0 0 0 0 0 0 0 0 0 127 0" result="hardAlpha"/>
<feOffset dy="1"/>
<feColorMatrix type="matrix" values="0 0 0 0 0.109804 0 0 0 0 0.109804 0 0 0 0 0.109804 0 0 0 0.1 0"/>
<feBlend mode="normal" in2="BackgroundImageFix" result="effect1_dropShadow_593_9261"/>
<feBlend mode="normal" in="SourceGraphic" in2="effect1_dropShadow_593_9261" result="shape"/>
</filter>
</defs>
</svg>
