<svg width="56" height="56" viewBox="0 0 56 56" fill="none" xmlns="http://www.w3.org/2000/svg">
<path fill-rule="evenodd" clip-rule="evenodd" d="M18.6667 13.6666C17.6942 13.6666 16.7616 14.0529 16.0739 14.7406C15.3863 15.4282 15 16.3608 15 17.3333V38.6666C15 39.6391 15.3863 40.5717 16.0739 41.2593C16.7616 41.947 17.6942 42.3333 18.6667 42.3333H32C32.5523 42.3333 33 41.8856 33 41.3333C33 40.781 32.5523 40.3333 32 40.3333H18.6667C18.2246 40.3333 17.8007 40.1577 17.4882 39.8451C17.1756 39.5326 17 39.1087 17 38.6666V17.3333C17 16.8913 17.1756 16.4673 17.4882 16.1548C17.8007 15.8422 18.2246 15.6666 18.6667 15.6666H34.6667C35.5871 15.6666 36.3333 16.4128 36.3333 17.3333V17.8043C35.7366 17.9735 35.187 18.2929 34.7406 18.7393C34.053 19.4269 33.6667 20.3595 33.6667 21.332V35.5542C33.6667 35.7355 33.7159 35.9133 33.8092 36.0687L36.4758 40.5132C36.6566 40.8144 36.9821 40.9987 37.3333 40.9987C37.6846 40.9987 38.0101 40.8144 38.1908 40.5132L40.8575 36.0687C40.9507 35.9133 41 35.7355 41 35.5542L41 21.332C41 20.3595 40.6137 19.4269 39.9261 18.7393C39.4797 18.2929 38.9301 17.9735 38.3333 17.8043V17.3333C38.3333 15.3082 36.6917 13.6666 34.6667 13.6666H18.6667ZM37.2929 19.6658C37.3063 19.6664 37.3198 19.6666 37.3333 19.6666C37.3469 19.6666 37.3604 19.6664 37.3738 19.6658C37.8012 19.6762 38.2088 19.8505 38.5118 20.1535C38.8244 20.466 39 20.89 39 21.332L39 35.2772L37.3333 38.055L35.6667 35.2772V21.332C35.6667 20.89 35.8423 20.466 36.1548 20.1535C36.4578 19.8505 36.8655 19.6762 37.2929 19.6658ZM20.3333 30.6666C20.3333 30.1143 20.781 29.6666 21.3333 29.6666H29.3333C29.8856 29.6666 30.3333 30.1143 30.3333 30.6666C30.3333 31.2189 29.8856 31.6666 29.3333 31.6666H21.3333C20.781 31.6666 20.3333 31.2189 20.3333 30.6666ZM21.3333 24.332C20.781 24.332 20.3333 24.7797 20.3333 25.332C20.3333 25.8843 20.781 26.332 21.3333 26.332H24C24.5523 26.332 25 25.8843 25 25.332C25 24.7797 24.5523 24.332 24 24.332H21.3333ZM20.3333 19.9987C20.3333 19.4464 20.781 18.9987 21.3333 18.9987H29.3333C29.8856 18.9987 30.3333 19.4464 30.3333 19.9987C30.3333 20.5509 29.8856 20.9987 29.3333 20.9987H21.3333C20.781 20.9987 20.3333 20.5509 20.3333 19.9987ZM21.3333 35C20.781 35 20.3333 35.4477 20.3333 36C20.3333 36.5522 20.781 37 21.3333 37H26.6667C27.219 37 27.6667 36.5522 27.6667 36C27.6667 35.4477 27.219 35 26.6667 35H21.3333Z" fill="#1F8EFA"/>
<rect x="12" y="55" width="32" height="1" fill="#1F8EFA"/>
</svg>
