<svg width="40" height="40" viewBox="0 0 40 40" fill="none" xmlns="http://www.w3.org/2000/svg">
<rect width="40" height="40" rx="20" fill="#E91E63"/>
<g filter="url(#filter0_d_593_8251)">
<path fill-rule="evenodd" clip-rule="evenodd" d="M15 11C12.7909 11 11 12.7909 11 15V25C11 27.2091 12.7909 29 15 29H25C27.2091 29 29 27.2091 29 25V15C29 12.7909 27.2091 11 25 11H15ZM9 15C9 11.6863 11.6863 9 15 9H25C28.3137 9 31 11.6863 31 15V25C31 28.3137 28.3137 31 25 31H15C11.6863 31 9 28.3137 9 25V15ZM20.4833 16.9892C19.8591 16.8966 19.2217 17.0032 18.6616 17.2939C18.1015 17.5845 17.6473 18.0443 17.3636 18.608C17.0799 19.1716 16.9811 19.8103 17.0814 20.4333C17.1816 21.0563 17.4758 21.6319 17.9219 22.0781C18.3681 22.5242 18.9437 22.8184 19.5667 22.9186C20.1897 23.0189 20.8284 22.9201 21.392 22.6364C21.9557 22.3527 22.4155 21.8985 22.7061 21.3384C22.9968 20.7783 23.1034 20.1409 23.0108 19.5167C22.9164 18.88 22.6197 18.2905 22.1646 17.8354C21.7095 17.3803 21.12 17.0836 20.4833 16.9892ZM17.7404 15.5186C18.6739 15.0342 19.7364 14.8566 20.7767 15.0108C21.8378 15.1682 22.8202 15.6626 23.5788 16.4212C24.3374 17.1798 24.8318 18.1622 24.9892 19.2233C25.1434 20.2636 24.9658 21.3261 24.4814 22.2596C23.997 23.1931 23.2306 23.9501 22.2912 24.4229C21.3518 24.8957 20.2872 25.0603 19.2489 24.8932C18.2106 24.7262 17.2514 24.2359 16.5077 23.4923C15.7641 22.7486 15.2738 21.7894 15.1068 20.7511C14.9397 19.7128 15.1043 18.6482 15.5771 17.7088C16.0499 16.7694 16.8069 16.003 17.7404 15.5186ZM25.5 13.5C24.9477 13.5 24.5 13.9477 24.5 14.5C24.5 15.0523 24.9477 15.5 25.5 15.5H25.51C26.0623 15.5 26.51 15.0523 26.51 14.5C26.51 13.9477 26.0623 13.5 25.51 13.5H25.5Z" fill="white"/>
</g>
<defs>
<filter id="filter0_d_593_8251" x="8" y="8" width="24" height="25" filterUnits="userSpaceOnUse" color-interpolation-filters="sRGB">
<feFlood flood-opacity="0" result="BackgroundImageFix"/>
<feColorMatrix in="SourceAlpha" type="matrix" values="0 0 0 0 0 0 0 0 0 0 0 0 0 0 0 0 0 0 127 0" result="hardAlpha"/>
<feOffset dy="1"/>
<feColorMatrix type="matrix" values="0 0 0 0 0.109804 0 0 0 0 0.109804 0 0 0 0 0.109804 0 0 0 0.1 0"/>
<feBlend mode="normal" in2="BackgroundImageFix" result="effect1_dropShadow_593_8251"/>
<feBlend mode="normal" in="SourceGraphic" in2="effect1_dropShadow_593_8251" result="shape"/>
</filter>
</defs>
</svg>
