<svg width="56" height="56" viewBox="0 0 56 56" fill="none" xmlns="http://www.w3.org/2000/svg">
<path fill-rule="evenodd" clip-rule="evenodd" d="M27.9998 13.6667C25.6129 13.6667 23.3237 14.6149 21.6359 16.3027C19.948 17.9905 18.9998 20.2797 18.9998 22.6667C18.9998 27.186 18.0327 30.018 17.1219 31.6878C16.6651 32.5253 16.217 33.0806 15.8989 33.4164C15.7395 33.5846 15.6121 33.6985 15.5315 33.7656C15.4912 33.7992 15.4626 33.8211 15.4476 33.8323L15.4355 33.8411C15.4358 33.8409 15.4364 33.8405 15.4375 33.8398L15.4406 33.8377L15.4427 33.8363L15.4438 33.8355C15.4439 33.8354 15.444 33.8353 15.4463 33.8385L15.9998 35.6667H39.9998L40.5533 33.8385C40.5556 33.8353 40.5557 33.8354 40.5558 33.8355L40.557 33.8363L40.559 33.8377L40.5621 33.8398C40.5632 33.8405 40.5638 33.8409 40.5641 33.8411L40.552 33.8323C40.537 33.8211 40.5084 33.7992 40.4681 33.7656C40.3876 33.6985 40.2601 33.5846 40.1008 33.4164C39.7826 33.0806 39.3345 32.5253 38.8777 31.6878C37.9669 30.018 36.9998 27.186 36.9998 22.6667C36.9998 20.2797 36.0516 17.9905 34.3638 16.3027C32.6759 14.6149 30.3868 13.6667 27.9998 13.6667ZM37.7467 33.6667H18.2529C18.4575 33.3687 18.6683 33.0295 18.8777 32.6455C19.9669 30.6487 20.9998 27.4807 20.9998 22.6667C20.9998 20.8102 21.7373 19.0297 23.0501 17.7169C24.3628 16.4042 26.1433 15.6667 27.9998 15.6667C29.8563 15.6667 31.6368 16.4042 32.9496 17.7169C34.2623 19.0297 34.9998 20.8102 34.9998 22.6667C34.9998 27.4807 36.0327 30.6487 37.1219 32.6455C37.3314 33.0295 37.5421 33.3687 37.7467 33.6667ZM26.5581 39.4982C26.281 39.0205 25.6691 38.8579 25.1914 39.135C24.7136 39.4121 24.551 40.024 24.8281 40.5018C25.1505 41.0574 25.6131 41.5186 26.1697 41.8392C26.7264 42.1599 27.3575 42.3286 27.9998 42.3286C28.6422 42.3286 29.2733 42.1599 29.8299 41.8392C30.3865 41.5186 30.8492 41.0574 31.1715 40.5018C31.4486 40.024 31.286 39.4121 30.8083 39.135C30.3305 38.8579 29.7186 39.0205 29.4415 39.4982C29.295 39.7508 29.0847 39.9604 28.8317 40.1062C28.5787 40.2519 28.2918 40.3286 27.9998 40.3286C27.7078 40.3286 27.421 40.2519 27.168 40.1062C26.9149 39.9604 26.7047 39.7508 26.5581 39.4982Z" fill="white"/>
<circle cx="38" cy="18" r="6" fill="#FF3031" stroke="#354052" stroke-width="2"/>
<rect x="12" y="55" width="32" height="1" fill="#516173"/>
</svg>
