<svg width="20" height="21" viewBox="0 0 20 21" fill="none" xmlns="http://www.w3.org/2000/svg">
<path fill-rule="evenodd" clip-rule="evenodd" d="M9.6838 6.05205C9.88907 5.98363 10.111 5.98363 10.3163 6.05205L16.3163 8.05205C16.8402 8.2267 17.1234 8.79302 16.9487 9.31696C16.7741 9.8409 16.2077 10.1241 15.6838 9.94942L10 8.05483L4.31625 9.94942C3.79231 10.1241 3.22599 9.8409 3.05134 9.31696C2.8767 8.79302 3.15986 8.2267 3.6838 8.05205L9.6838 6.05205ZM3.6838 12.052L9.6838 10.052C9.88907 9.98363 10.111 9.98363 10.3163 10.052L16.3163 12.052C16.8402 12.2267 17.1234 12.793 16.9487 13.317C16.7741 13.8409 16.2077 14.1241 15.6838 13.9494L10 12.0548L4.31625 13.9494C3.79231 14.1241 3.22599 13.8409 3.05134 13.317C2.8767 12.793 3.15986 12.2267 3.6838 12.052Z" fill="#FF3031"/>
</svg>
