<svg width="14" height="18" viewBox="0 0 14 18" fill="none" xmlns="http://www.w3.org/2000/svg">
<path fill-rule="evenodd" clip-rule="evenodd" d="M13.7228 10.9391C14.0513 9.80319 14.0868 8.60258 13.8258 7.44927C13.5649 6.29597 13.016 5.22756 12.2305 4.34374C11.445 3.45993 10.4483 2.78951 9.33361 2.39505C8.81296 2.21081 8.24153 2.48352 8.05729 3.00417C7.87305 3.52482 8.14577 4.09624 8.66641 4.28048C9.46264 4.56224 10.1745 5.04111 10.7356 5.67241C11.2967 6.3037 11.6888 7.06685 11.8752 7.89064C12.0616 8.71443 12.0362 9.57201 11.8015 10.3834C11.5669 11.1947 11.1305 11.9334 10.5331 12.5305C10.5257 12.5379 10.5184 12.5454 10.5113 12.553L9.33334 13.8065L9.33334 12.3311C9.33334 11.7788 8.88563 11.3311 8.33334 11.3311C7.78106 11.3311 7.33334 11.7788 7.33334 12.3311L7.33334 16.3311C7.33334 16.8834 7.78106 17.3311 8.33334 17.3311L12.3333 17.3311C12.8856 17.3311 13.3333 16.8834 13.3333 16.3311C13.3333 15.7788 12.8856 15.3311 12.3333 15.3311L10.6452 15.3311L11.9584 13.9335C12.7889 13.0996 13.3957 12.0698 13.7228 10.9391ZM5.66668 6.66443C6.21896 6.66443 6.66668 6.21672 6.66668 5.66443L6.66668 1.66443C6.66668 1.11265 6.21978 0.665254 5.6682 0.664433C5.66636 0.664427 5.66452 0.664427 5.66268 0.664432L1.66668 0.664432C1.11439 0.664432 0.666676 1.11215 0.666676 1.66443C0.666676 2.21672 1.11439 2.66443 1.66668 2.66443L3.3541 2.66443L2.04147 4.06211C1.21109 4.89598 0.604274 5.92581 0.277237 7.05644C-0.0513218 8.19234 -0.0867794 9.39295 0.17417 10.5463C0.43512 11.6996 0.983975 12.768 1.76952 13.6518C2.55506 14.5356 3.55169 15.206 4.66641 15.6005C5.18706 15.7847 5.75849 15.512 5.94273 14.9914C6.12697 14.4707 5.85425 13.8993 5.33361 13.715C4.53738 13.4333 3.8255 12.9544 3.2644 12.3231C2.70329 11.6918 2.31125 10.9287 2.12486 10.1049C1.93847 9.2811 1.96379 8.42352 2.19848 7.61217C2.43316 6.80081 2.86956 6.06213 3.46694 5.46505C3.47439 5.4576 3.48173 5.45003 3.48895 5.44234L4.66668 4.1883L4.66668 5.66443C4.66668 6.21672 5.11439 6.66443 5.66668 6.66443Z" fill="#1F8EFA"/>
</svg>
