<svg width="21" height="21" viewBox="0 0 21 21" fill="none" xmlns="http://www.w3.org/2000/svg">
<path fill-rule="evenodd" clip-rule="evenodd" d="M3.83337 9.16867C3.83337 6.03905 6.37043 3.502 9.50004 3.502C12.6297 3.502 15.1667 6.03905 15.1667 9.16867C15.1667 10.6911 14.5663 12.0733 13.5894 13.0914C13.5589 13.1156 13.5294 13.1417 13.5013 13.1699C13.4731 13.1981 13.4469 13.2275 13.4228 13.258C12.4047 14.235 11.0225 14.8353 9.50004 14.8353C6.37043 14.8353 3.83337 12.2983 3.83337 9.16867ZM14.168 15.2509C12.8753 16.2446 11.2566 16.8353 9.50004 16.8353C5.26586 16.8353 1.83337 13.4028 1.83337 9.16867C1.83337 4.93448 5.26586 1.502 9.50004 1.502C13.7342 1.502 17.1667 4.93448 17.1667 9.16867C17.1667 10.9253 16.5759 12.5439 15.5823 13.8367L18.5405 16.7949C18.931 17.1854 18.931 17.8186 18.5405 18.2091C18.15 18.5996 17.5168 18.5996 17.1263 18.2091L14.168 15.2509Z" fill="#7F8FA4"/>
</svg>
