<svg width="56" height="56" viewBox="0 0 56 56" fill="none" xmlns="http://www.w3.org/2000/svg">
<path fill-rule="evenodd" clip-rule="evenodd" d="M25.5497 15.6653C25.2805 15.6653 25 15.9025 25 16.273C25 16.5168 25.1053 16.7369 25.6319 16.9872C26.1373 17.2274 26.7758 17.3652 27.4481 17.5104L27.6587 17.556C27.8755 17.6033 28.1063 17.6017 28.3303 17.5507C28.4338 17.5271 28.5364 17.5042 28.638 17.4815C29.2819 17.3376 29.8839 17.2032 30.3703 16.974C30.9007 16.7241 31 16.5081 31 16.273C31 15.9025 30.7196 15.6653 30.4503 15.6653H25.5497ZM23 16.273C23 14.8678 24.1073 13.6653 25.5497 13.6653H30.4503C31.8928 13.6653 33 14.8678 33 16.273C33 17.6323 32.0691 18.3845 31.2226 18.7833C30.8681 18.9503 30.4773 19.0807 30.097 19.1866C32.1362 19.5567 33.9907 20.4568 35.5126 21.7391L38.0429 19.2151L36.8707 18.0375C36.4811 17.6461 36.4825 17.0129 36.874 16.6233C37.2654 16.2336 37.8985 16.2351 38.2882 16.6265L40.1651 18.5121L42.0421 20.3978C42.4317 20.7892 42.4303 21.4223 42.0389 21.812C41.6474 22.2016 41.0143 22.2001 40.6246 21.8087L39.4539 20.6326L36.9268 23.1533C38.6365 25.183 39.6667 27.8038 39.6667 30.6653C39.6667 37.1087 34.4434 42.332 28 42.332C21.5567 42.332 16.3334 37.1087 16.3334 30.6653C16.3334 24.9483 20.4455 20.1918 25.8733 19.1921C25.5014 19.0876 25.1208 18.9587 24.7735 18.7936C23.9241 18.39 23 17.6313 23 16.273ZM18.3334 30.6653C18.3334 25.3266 22.6613 20.9987 28 20.9987C33.3388 20.9987 37.6667 25.3266 37.6667 30.6653C37.6667 36.0041 33.3388 40.332 28 40.332C22.6613 40.332 18.3334 36.0041 18.3334 30.6653ZM28 26.332C30.3933 26.332 32.3334 28.2721 32.3334 30.6653C32.3334 31.8495 31.8597 32.9211 31.0892 33.7043C30.7018 34.098 30.707 34.7311 31.1006 35.1184C31.4943 35.5058 32.1275 35.5006 32.5148 35.1069C33.6385 33.9649 34.3334 32.3953 34.3334 30.6653C34.3334 27.1675 31.4978 24.332 28 24.332V26.332Z" fill="white"/>
<rect x="12" y="55" width="32" height="1" fill="#516173"/>
</svg>
